<svg xmlns="http://www.w3.org/2000/svg" xmlns:xlink="http://www.w3.org/1999/xlink" viewBox="189 156.5 259 259"><defs><style>.cls-1{fill:url(#g3);}.cls-2{fill:url(#g1);}.cls-3{fill:url(#g2);}</style><linearGradient id="g1" x1="209.12" y1="360.24" x2="364.59" y2="204.77" gradientUnits="userSpaceOnUse"><stop offset="0" stop-color="#0f1e20"/><stop offset=".55" stop-color="#235347"/><stop offset="1" stop-color="#8db59a"/></linearGradient><linearGradient id="g2" x1="182.73" y1="333.86" x2="338.21" y2="178.39" xlink:href="#g1"/><linearGradient id="g3" x1="243.61" y1="394.74" x2="399.08" y2="239.26" xlink:href="#g1"/></defs><rect x="189" y="156.5" width="259" height="259" rx="50" fill="#ffffff"/><path class="cls-2" d="M305.26,267.19c-.24-.26-.32-.6-.57-.85-5.04-8.17-14.51-13.37-24.94-12.65-13.36.93-24.1,11.81-24.88,25.18-.46,7.92,2.54,15.18,7.63,20.36,4.88,4.97,11.67,8.07,19.17,8.07,10.1,0,18.91-5.6,23.49-13.87,2.13-3.85,3.35-8.27,3.35-12.97,0-1.53.08-3.05.24-4.54.11-1.04.25-2.08.44-3.09,1.15-6.5,3.77-12.51,7.49-17.66.03-.06.07-.11.11-.16,7.4-10.19,19.12-17.05,32.45-17.85h.01c.87-.06,1.76-.08,2.65-.08,12.1,0,23.06,4.98,30.94,13-.94.95-1.82,1.94-2.66,2.97-2.8,3.42-5.08,7.27-6.74,11.44-4.88-6.58-12.72-10.85-21.54-10.85-.9,0-1.79.04-2.66.13h0c-10.52,1.04-19.27,8.19-22.66,17.84-.98,2.78-1.51,5.76-1.51,8.87,0,4.51-.69,8.88-1.98,12.97-1.42,4.53-3.57,8.74-6.3,12.49-.83,1.15-1.73,2.25-2.67,3.31-1.71,1.93-3.58,3.7-5.61,5.3-7.39,5.84-16.72,9.32-26.84,9.32h-.2c-10.05-.04-19.3-3.52-26.64-9.32v27.09c0,9.14-7.41,16.56-16.56,16.56h0v-77.73c0-1.53.08-3.05.24-4.54,2.27-21.8,20.76-38.86,43.16-38.86,12.89,0,24.5,5.66,32.45,14.63-.17.19-.34.38-.5.57-3.71,4.32-6.58,9.38-8.35,14.92"/><path class="cls-3" d="M238.51,275.93c-.15,1.49-.24,3.01-.24,4.54"/><path class="cls-1" d="M325.07,302.69v21.17h-20.04c1.2-.61,2.36-1.27,3.48-1.99,3.68-2.32,6.99-5.19,9.81-8.49.8-.93,1.56-1.9,2.27-2.9,1.75-2.42,3.25-5.03,4.47-7.79Z"/></svg>
