<svg xmlns="http://www.w3.org/2000/svg" xmlns:xlink="http://www.w3.org/1999/xlink" width="2000" zoomAndPan="magnify" viewBox="0 0 1500 1499.999933" height="2000" preserveAspectRatio="xMidYMid meet" version="1.0"><defs><clipPath id="fc9848391f"><path d="M 1 0.960938 L 416 0.960938 L 416 416 L 1 416 Z M 1 0.960938 " clip-rule="nonzero"/></clipPath><clipPath id="017c12aa9e"><path d="M 1.121094 208.265625 L 208.425781 0.960938 L 415.730469 208.265625 L 208.425781 415.570312 Z M 1.121094 208.265625 " clip-rule="nonzero"/></clipPath><clipPath id="6f32ecf373"><path d="M 0 0.960938 L 414.878906 0.960938 L 414.878906 415.679688 L 0 415.679688 Z M 0 0.960938 " clip-rule="nonzero"/></clipPath><clipPath id="7d81a1b763"><path d="M 0.121094 208.265625 L 207.425781 0.960938 L 414.730469 208.265625 L 207.425781 415.570312 Z M 0.121094 208.265625 " clip-rule="nonzero"/></clipPath><clipPath id="02e4e53483"><rect x="0" width="415" y="0" height="416"/></clipPath><clipPath id="49d1d629b6"><path d="M 208 208 L 624 208 L 624 623 L 208 623 Z M 208 208 " clip-rule="nonzero"/></clipPath><clipPath id="264e6bd888"><path d="M 208.425781 415.570312 L 415.730469 208.265625 L 623.035156 415.570312 L 415.730469 622.875 Z M 208.425781 415.570312 " clip-rule="nonzero"/></clipPath><clipPath id="4c601032f8"><path d="M 0.28125 0.078125 L 415.238281 0.078125 L 415.238281 415 L 0.28125 415 Z M 0.28125 0.078125 " clip-rule="nonzero"/></clipPath><clipPath id="480387f132"><path d="M 0.425781 207.570312 L 207.730469 0.265625 L 415.035156 207.570312 L 207.730469 414.875 Z M 0.425781 207.570312 " clip-rule="nonzero"/></clipPath><clipPath id="afd3d440a4"><rect x="0" width="416" y="0" height="415"/></clipPath><clipPath id="56512cddd3"><path d="M 623 208 L 1038 208 L 1038 623 L 623 623 Z M 623 208 " clip-rule="nonzero"/></clipPath><clipPath id="e14aec2db8"><path d="M 623.035156 415.570312 L 830.339844 208.265625 L 1037.644531 415.570312 L 830.339844 622.875 Z M 623.035156 415.570312 " clip-rule="nonzero"/></clipPath><clipPath id="dc6e23f841"><path d="M 0 0.078125 L 414.71875 0.078125 L 414.71875 415 L 0 415 Z M 0 0.078125 " clip-rule="nonzero"/></clipPath><clipPath id="d0778147a6"><path d="M 0.0351562 207.570312 L 207.339844 0.265625 L 414.644531 207.570312 L 207.339844 414.875 Z M 0.0351562 207.570312 " clip-rule="nonzero"/></clipPath><clipPath id="4ae29af28c"><rect x="0" width="415" y="0" height="415"/></clipPath><clipPath id="4eca37bce1"><path d="M 415.695312 415.652344 L 830.304688 415.652344 L 830.304688 622.957031 L 415.695312 622.957031 Z M 415.695312 415.652344 " clip-rule="nonzero"/></clipPath><clipPath id="c29af070a4"><path d="M 623 415.652344 L 830.304688 622.957031 L 415.695312 622.957031 Z M 623 415.652344 " clip-rule="nonzero"/></clipPath><clipPath id="f1f4aa2a40"><path d="M 0.695312 0.652344 L 415.304688 0.652344 L 415.304688 207.957031 L 0.695312 207.957031 Z M 0.695312 0.652344 " clip-rule="nonzero"/></clipPath><clipPath id="717d6a9edf"><path d="M 208 0.652344 L 415.304688 207.957031 L 0.695312 207.957031 Z M 208 0.652344 " clip-rule="nonzero"/></clipPath><clipPath id="41d8729b6c"><rect x="0" width="416" y="0" height="208"/></clipPath><clipPath id="b916d9250c"><path d="M 415 0.960938 L 831 0.960938 L 831 416 L 415 416 Z M 415 0.960938 " clip-rule="nonzero"/></clipPath><clipPath id="701240c95f"><path d="M 415.730469 208.265625 L 623.035156 0.960938 L 830.339844 208.265625 L 623.035156 415.570312 Z M 415.730469 208.265625 " clip-rule="nonzero"/></clipPath><clipPath id="d41dcb9130"><path d="M 0.640625 0.960938 L 415.359375 0.960938 L 415.359375 415.679688 L 0.640625 415.679688 Z M 0.640625 0.960938 " clip-rule="nonzero"/></clipPath><clipPath id="8fda6265a0"><path d="M 0.730469 208.265625 L 208.035156 0.960938 L 415.339844 208.265625 L 208.035156 415.570312 Z M 0.730469 208.265625 " clip-rule="nonzero"/></clipPath><clipPath id="00b0f6dbe3"><rect x="0" width="416" y="0" height="416"/></clipPath><clipPath id="9b609853bd"><path d="M 830 0.960938 L 1245 0.960938 L 1245 416 L 830 416 Z M 830 0.960938 " clip-rule="nonzero"/></clipPath><clipPath id="8587a70c93"><path d="M 830.339844 208.265625 L 1037.644531 0.960938 L 1244.949219 208.265625 L 1037.644531 415.570312 Z M 830.339844 208.265625 " clip-rule="nonzero"/></clipPath><clipPath id="85206f1b37"><path d="M 0.121094 0.960938 L 415 0.960938 L 415 415.679688 L 0.121094 415.679688 Z M 0.121094 0.960938 " clip-rule="nonzero"/></clipPath><clipPath id="2563af41d6"><path d="M 0.339844 208.265625 L 207.644531 0.960938 L 414.949219 208.265625 L 207.644531 415.570312 Z M 0.339844 208.265625 " clip-rule="nonzero"/></clipPath><clipPath id="e44baa6623"><rect x="0" width="415" y="0" height="416"/></clipPath><clipPath id="6b3313119b"><rect x="0" width="1246" y="0" height="624"/></clipPath></defs><g transform="matrix(1, 0, 0, 1, 127, 438)"><g clip-path="url(#6b3313119b)"><g clip-path="url(#fc9848391f)"><g clip-path="url(#017c12aa9e)"><g transform="matrix(1, 0, 0, 1, 1, 0.000000000000113687)"><g clip-path="url(#02e4e53483)"><g clip-path="url(#6f32ecf373)"><g clip-path="url(#7d81a1b763)"><path fill="#051f20" d="M 0.121094 208.265625 L 207.425781 0.960938 L 414.730469 208.265625 L 207.425781 415.570312 Z M 0.121094 208.265625 " fill-opacity="1" fill-rule="nonzero"/></g></g></g></g></g></g><g clip-path="url(#49d1d629b6)"><g clip-path="url(#264e6bd888)"><g transform="matrix(1, 0, 0, 1, 208, 208)"><g clip-path="url(#afd3d440a4)"><g clip-path="url(#4c601032f8)"><g clip-path="url(#480387f132)"><path fill="#0b2b26" d="M 0.425781 207.570312 L 207.730469 0.265625 L 415.035156 207.570312 L 207.730469 414.875 Z M 0.425781 207.570312 " fill-opacity="1" fill-rule="nonzero"/></g></g></g></g></g></g><g clip-path="url(#56512cddd3)"><g clip-path="url(#e14aec2db8)"><g transform="matrix(1, 0, 0, 1, 623, 208)"><g clip-path="url(#4ae29af28c)"><g clip-path="url(#dc6e23f841)"><g clip-path="url(#d0778147a6)"><path fill="#8eb69b" d="M 0.0351562 207.570312 L 207.339844 0.265625 L 414.644531 207.570312 L 207.339844 414.875 Z M 0.0351562 207.570312 " fill-opacity="1" fill-rule="nonzero"/></g></g></g></g></g></g><g clip-path="url(#4eca37bce1)"><g clip-path="url(#c29af070a4)"><g transform="matrix(1, 0, 0, 1, 415, 415)"><g clip-path="url(#41d8729b6c)"><g clip-path="url(#f1f4aa2a40)"><g clip-path="url(#717d6a9edf)"><path fill="#163832" d="M 0.695312 0.652344 L 415.304688 0.652344 L 415.304688 207.957031 L 0.695312 207.957031 Z M 0.695312 0.652344 " fill-opacity="1" fill-rule="nonzero"/></g></g></g></g></g></g><g clip-path="url(#b916d9250c)"><g clip-path="url(#701240c95f)"><g transform="matrix(1, 0, 0, 1, 415, 0.000000000000113687)"><g clip-path="url(#00b0f6dbe3)"><g clip-path="url(#d41dcb9130)"><g clip-path="url(#8fda6265a0)"><path fill="#235347" d="M 0.730469 208.265625 L 208.035156 0.960938 L 415.339844 208.265625 L 208.035156 415.570312 Z M 0.730469 208.265625 " fill-opacity="1" fill-rule="nonzero"/></g></g></g></g></g></g><g clip-path="url(#9b609853bd)"><g clip-path="url(#8587a70c93)"><g transform="matrix(1, 0, 0, 1, 830, 0.000000000000113687)"><g clip-path="url(#e44baa6623)"><g clip-path="url(#85206f1b37)"><g clip-path="url(#2563af41d6)"><path fill="#daf1de" d="M 0.339844 208.265625 L 207.644531 0.960938 L 414.949219 208.265625 L 207.644531 415.570312 Z M 0.339844 208.265625 " fill-opacity="1" fill-rule="nonzero"/></g></g></g></g></g></g></g></g></svg>