<?xml version="1.0" encoding="UTF-8"?><svg id="Warstwa_1" xmlns="http://www.w3.org/2000/svg" viewBox="0 0 841.89 595.28"><defs><style>.cls-1{fill:#fff;}</style></defs><path class="cls-1" d="M135.21,267.3c-.24-.26-.48-.52-.73-.78-5.04-8.17-14.34-13.45-24.77-12.72-13.36.93-24.1,11.81-24.88,25.18-.46,7.92,2.54,15.18,7.63,20.36,4.88,4.97,11.67,8.07,19.17,8.07,10.1,0,18.91-5.6,23.49-13.87,2.13-3.85,3.35-8.27,3.35-12.97,0-1.53.08-3.05.24-4.54.11-1.04.25-2.08.44-3.09,1.15-6.5,3.77-12.51,7.49-17.66.03-.06.07-.11.11-.16,7.4-10.19,19.12-17.05,32.45-17.85h.01c.87-.06,1.76-.08,2.65-.08,12.1,0,23.06,4.98,30.94,13-.94.95-1.82,1.94-2.66,2.97-2.8,3.42-5.08,7.27-6.74,11.44-4.88-6.58-12.72-10.85-21.54-10.85-.9,0-1.79.04-2.66.13h0c-10.52,1.04-19.27,8.19-22.66,17.84-.98,2.78-1.51,5.76-1.51,8.87,0,4.51-.69,8.88-1.98,12.97-1.42,4.53-3.57,8.74-6.3,12.49-.83,1.15-1.73,2.25-2.67,3.31-1.71,1.93-3.58,3.7-5.61,5.3-7.39,5.84-16.72,9.32-26.84,9.32h-.2c-10.05-.04-19.3-3.52-26.64-9.32v27.09c0,9.14-7.41,16.56-16.56,16.56h0v-77.73c0-1.53.08-3.05.24-4.54,2.27-21.8,20.76-38.86,43.16-38.86,12.89,0,24.5,5.66,32.45,14.63-.17.19-.34.38-.5.57-3.71,4.32-6.58,9.38-8.35,14.92"/><path class="cls-1" d="M68.46,276.04c-.15,1.49-.24,3.01-.24,4.54"/><path class="cls-1" d="M155.01,302.8v21.17h-20.04c1.2-.61,2.36-1.27,3.48-1.99,3.68-2.32,6.99-5.19,9.81-8.49.8-.93,1.56-1.9,2.27-2.9,1.75-2.42,3.25-5.03,4.47-7.79Z"/><path class="cls-1" d="M293.63,279.22c-.06-1.77-.22-3.51-.47-5.21-1.14-7.46-4.16-14.3-8.58-20.02-7.98-10.35-20.5-17.03-34.55-17.03-24.05,0-43.61,19.57-43.61,43.62s19.56,43.61,43.61,43.61c9.44,0,18.19-3.02,25.34-8.14,3.41-2.44,6.46-5.36,9.05-8.66,4.44-5.69,7.51-12.52,8.69-19.96.36-2.23.54-4.52.54-6.85,0-.46-.01-.91-.02-1.36ZM275.84,287.35c-3,11.44-13.44,19.91-25.81,19.91-14.71,0-26.68-11.97-26.68-26.68s11.97-26.69,26.68-26.69c12.43,0,22.9,8.55,25.85,20.08.54,2.11.83,4.33.83,6.61s-.3,4.61-.87,6.77Z"/><path class="cls-1" d="M773.65,279.85c-.06-1.77-.22-3.51-.47-5.21-1.14-7.46-4.16-14.3-8.58-20.02-7.98-10.35-20.5-17.03-34.55-17.03-24.05,0-43.61,19.57-43.61,43.62s19.56,43.61,43.61,43.61c9.44,0,18.19-3.02,25.34-8.14,3.41-2.44,6.46-5.36,9.05-8.66,4.44-5.69,7.51-12.52,8.69-19.96.36-2.23.54-4.52.54-6.85,0-.46-.01-.91-.02-1.36ZM755.86,287.98c-3,11.44-13.44,19.91-25.81,19.91-14.71,0-26.68-11.97-26.68-26.68s11.97-26.69,26.68-26.69c12.43,0,22.9,8.55,25.85,20.08.54,2.11.83,4.33.83,6.61s-.3,4.61-.87,6.77Z"/><path class="cls-1" d="M610.32,280.52v.16c-.01.17-.01.34-.01.51,0,.13,0,.25.01.38,0-.23,0-.45,0-.68v-.21c0-.06,0-.11,0-.16Z"/><path class="cls-1" d="M680.61,281.19v43.09h-16.94v-43.09c0-2.28-.29-4.5-.83-6.61-2.95-11.53-13.42-20.08-25.85-20.08-14.49,0-26.31,11.61-26.67,26.02v.16c-.01.17-.01.34-.01.51,0,.13,0,.25.01.38,0,.9.06,1.79.17,2.66v40.05h-17.1v-43.74c-.03-2.16-.32-4.26-.83-6.26-2.95-11.53-13.42-20.08-25.85-20.08-13.69,0-24.99,10.36-26.5,23.65-.08-1.2-.21-2.37-.38-3.53-1.09-7.12-3.88-13.67-7.98-19.22-.05-.06-.09-.13-.14-.19,7.95-10.7,20.68-17.64,35-17.64s26.57,6.68,34.55,17.03c.24.31.48.62.7.94,7.95-10.72,20.69-17.67,35.03-17.67s26.57,6.68,34.55,17.03c4.42,5.72,7.44,12.56,8.58,20.02.25,1.7.41,3.44.47,5.21.01.28.01.56.01.85.01.17.01.34.01.51Z"/><path class="cls-1" d="M531.98,280.58c0,.09,0,.17.01.26v-.53c-.01.09-.01.18-.01.27Z"/><path class="cls-1" d="M531.71,281.04v34.02c.09.07.18.14.28.21v-30.86c-.17-1.1-.26-2.23-.28-3.37Z"/><path class="cls-1" d="M531.99,280.31c0-.06,0-.11-.01-.16,0-.31,0-.62-.01-.93-.02-.56-.05-1.13-.09-1.68-.08-1.2-.21-2.37-.38-3.53-1.09-7.12-3.88-13.67-7.98-19.22-.05-.06-.09-.13-.14-.19-.15-.21-.31-.41-.46-.61-7.98-10.35-20.5-17.03-34.55-17.03-24.05,0-43.61,19.57-43.61,43.62s19.56,43.61,43.61,43.61c9.44,0,18.19-3.02,25.34-8.14.45-.32.9-.66,1.34-1v8.71h16.94v-8.49c-.1-.07-.19-.14-.28-.21v-34.02c.02,1.14.11,2.27.28,3.37v-3.57c-.01-.09-.01-.17-.01-.26s0-.18.01-.27ZM514.18,287.35c-3,11.44-13.44,19.91-25.81,19.91-14.71,0-26.68-11.97-26.68-26.68s11.97-26.69,26.68-26.69c12.43,0,22.9,8.55,25.85,20.08.54,2.11.83,4.33.83,6.61s-.3,4.61-.87,6.77Z"/><path class="cls-1" d="M370.43,280.8c0,.75-.02,1.5-.06,2.24v33.89c-.66,13.12-7.15,24.73-16.93,32.29-7.37,5.7-16.61,9.09-26.62,9.09-20.79,0-37.65-10.37-41.99-29.87h6.34c5.67,0,11.24,2.12,15.11,6.26,4.72,5.05,12.01,6.68,20.54,6.68,14.13,0,25.72-11.04,26.62-24.95v-1.11c-7.37,5.7-16.61,9.09-26.62,9.09s-19.3-3.41-26.68-9.13c-2.95-2.29-5.6-4.94-7.87-7.89,4.44-5.69,7.51-12.52,8.69-19.96.99,3.84,2.81,7.34,5.26,10.31,4.89,5.94,12.31,9.74,20.6,9.74s15.7-3.8,20.59-9.74c3.81-4.61,6.09-10.51,6.09-16.94,0-.2,0-.4-.01-.59-.31-14.45-12.16-26.1-26.67-26.1-12.37,0-22.8,8.46-25.81,19.9-1.14-7.46-4.16-14.3-8.58-20.02,8-10.23,20.44-16.81,34.39-16.81,24.05,0,43.61,19.57,43.61,43.62Z"/><path class="cls-1" d="M364.52,312.45v4.48c.04-.74.06-1.49.06-2.24s-.02-1.5-.06-2.24Z"/><path class="cls-1" d="M451.39,249.73c-4.09,4.21-7.33,9.24-9.45,14.81-4.86-6.48-12.62-10.68-21.36-10.68-14.71,0-26.68,11.9-26.68,26.54v43.37h-16.93v-43.37c0-1.03.04-2.05.11-3.06,1.58-22.49,20.49-40.31,43.5-40.31,12.02,0,22.92,4.86,30.81,12.71Z"/><path class="cls-1" d="M378.7,277.07c-.07,1.02-.11,2.04-.11,3.08v-3.08h.11Z"/><path class="cls-1" d="M531.99,280.15v.16c0-.06,0-.11-.01-.16h.01Z"/><path class="cls-1" d="M531.98,280.58c0-.09,0-.18.01-.27v.53c-.01-.09-.01-.17-.01-.26Z"/><path class="cls-1" d="M606.16,281v3.55c-.11-.87-.16-1.76-.17-2.66-.01-.13-.01-.25-.01-.38,0-.17,0-.34.01-.51h.17Z"/><path class="cls-1" d="M676.28,281v.51c0-.17,0-.34-.01-.51h.01Z"/></svg>