<svg xmlns="http://www.w3.org/2000/svg" xmlns:xlink="http://www.w3.org/1999/xlink" width="2000" zoomAndPan="magnify" viewBox="0 0 1500 1499.999933" height="2000" preserveAspectRatio="xMidYMid meet" version="1.0"><defs><g/><clipPath id="51163b47f7"><path d="M 0.679688 0.238281 L 108 0.238281 L 108 108 L 0.679688 108 Z M 0.679688 0.238281 " clip-rule="nonzero"/></clipPath><clipPath id="a52ba25786"><path d="M 0.839844 53.714844 L 54.226562 0.328125 L 107.617188 53.714844 L 54.226562 107.105469 Z M 0.839844 53.714844 " clip-rule="nonzero"/></clipPath><clipPath id="c43781d40e"><path d="M 0.679688 0.238281 L 107.71875 0.238281 L 107.71875 107.28125 L 0.679688 107.28125 Z M 0.679688 0.238281 " clip-rule="nonzero"/></clipPath><clipPath id="c2aff3b6a4"><path d="M 0.839844 53.714844 L 54.226562 0.328125 L 107.617188 53.714844 L 54.226562 107.105469 Z M 0.839844 53.714844 " clip-rule="nonzero"/></clipPath><clipPath id="fd288b948b"><rect x="0" width="108" y="0" height="108"/></clipPath><clipPath id="fcb82fdc3e"><path d="M 54 53 L 162 53 L 162 160.558594 L 54 160.558594 Z M 54 53 " clip-rule="nonzero"/></clipPath><clipPath id="3ad979204a"><path d="M 54.226562 107.105469 L 107.617188 53.714844 L 161.007812 107.105469 L 107.617188 160.496094 Z M 54.226562 107.105469 " clip-rule="nonzero"/></clipPath><clipPath id="5cd1eac385"><path d="M 0.199219 0.519531 L 107.238281 0.519531 L 107.238281 107.558594 L 0.199219 107.558594 Z M 0.199219 0.519531 " clip-rule="nonzero"/></clipPath><clipPath id="80178ba413"><path d="M 0.226562 54.105469 L 53.617188 0.714844 L 107.007812 54.105469 L 53.617188 107.496094 Z M 0.226562 54.105469 " clip-rule="nonzero"/></clipPath><clipPath id="96f196ee09"><rect x="0" width="108" y="0" height="108"/></clipPath><clipPath id="5aed21f3d7"><path d="M 161 53 L 268 53 L 268 160.558594 L 161 160.558594 Z M 161 53 " clip-rule="nonzero"/></clipPath><clipPath id="013f4065d4"><path d="M 161.007812 107.105469 L 214.398438 53.714844 L 267.789062 107.105469 L 214.398438 160.496094 Z M 161.007812 107.105469 " clip-rule="nonzero"/></clipPath><clipPath id="e3d1065d1a"><path d="M 0 0.519531 L 106.800781 0.519531 L 106.800781 107.558594 L 0 107.558594 Z M 0 0.519531 " clip-rule="nonzero"/></clipPath><clipPath id="93d98ac299"><path d="M 0.0078125 54.105469 L 53.398438 0.714844 L 106.789062 54.105469 L 53.398438 107.496094 Z M 0.0078125 54.105469 " clip-rule="nonzero"/></clipPath><clipPath id="7a54a310cc"><rect x="0" width="107" y="0" height="108"/></clipPath><clipPath id="a5189dbf40"><path d="M 107.609375 107.128906 L 214.390625 107.128906 L 214.390625 160.519531 L 107.609375 160.519531 Z M 107.609375 107.128906 " clip-rule="nonzero"/></clipPath><clipPath id="adab6039ce"><path d="M 161 107.128906 L 214.390625 160.519531 L 107.609375 160.519531 Z M 161 107.128906 " clip-rule="nonzero"/></clipPath><clipPath id="c7323bf623"><path d="M 0.609375 0.128906 L 107.390625 0.128906 L 107.390625 53.519531 L 0.609375 53.519531 Z M 0.609375 0.128906 " clip-rule="nonzero"/></clipPath><clipPath id="3dfc977707"><path d="M 54 0.128906 L 107.390625 53.519531 L 0.609375 53.519531 Z M 54 0.128906 " clip-rule="nonzero"/></clipPath><clipPath id="2a9cf2223b"><rect x="0" width="108" y="0" height="54"/></clipPath><clipPath id="4c08cd99c3"><path d="M 107 0.238281 L 215 0.238281 L 215 108 L 107 108 Z M 107 0.238281 " clip-rule="nonzero"/></clipPath><clipPath id="b3be699ad1"><path d="M 107.617188 53.714844 L 161.007812 0.328125 L 214.398438 53.714844 L 161.007812 107.105469 Z M 107.617188 53.714844 " clip-rule="nonzero"/></clipPath><clipPath id="cc3a604ac1"><path d="M 0.480469 0.238281 L 107.519531 0.238281 L 107.519531 107.28125 L 0.480469 107.28125 Z M 0.480469 0.238281 " clip-rule="nonzero"/></clipPath><clipPath id="84a101a29c"><path d="M 0.617188 53.714844 L 54.007812 0.328125 L 107.398438 53.714844 L 54.007812 107.105469 Z M 0.617188 53.714844 " clip-rule="nonzero"/></clipPath><clipPath id="c4f819340a"><rect x="0" width="108" y="0" height="108"/></clipPath><clipPath id="e6353730a0"><path d="M 214 0.238281 L 321.320312 0.238281 L 321.320312 108 L 214 108 Z M 214 0.238281 " clip-rule="nonzero"/></clipPath><clipPath id="20dca3429c"><path d="M 214.398438 53.714844 L 267.789062 0.328125 L 321.179688 53.714844 L 267.789062 107.105469 Z M 214.398438 53.714844 " clip-rule="nonzero"/></clipPath><clipPath id="9595f7b5b6"><path d="M 0.28125 0.238281 L 107.320312 0.238281 L 107.320312 107.28125 L 0.28125 107.28125 Z M 0.28125 0.238281 " clip-rule="nonzero"/></clipPath><clipPath id="f1d4a253e0"><path d="M 0.398438 53.714844 L 53.789062 0.328125 L 107.179688 53.714844 L 53.789062 107.105469 Z M 0.398438 53.714844 " clip-rule="nonzero"/></clipPath><clipPath id="f06ab8ba37"><rect x="0" width="108" y="0" height="108"/></clipPath><clipPath id="efee5eabf6"><rect x="0" width="322" y="0" height="161"/></clipPath><clipPath id="646bca040c"><rect x="0" width="825" y="0" height="135"/></clipPath></defs><g transform="matrix(1, 0, 0, 1, 589, 564)"><g clip-path="url(#efee5eabf6)"><g clip-path="url(#51163b47f7)"><g clip-path="url(#a52ba25786)"><g transform="matrix(1, 0, 0, 1, 0.000000000000113687, 0.000000000000113687)"><g clip-path="url(#fd288b948b)"><g clip-path="url(#c43781d40e)"><g clip-path="url(#c2aff3b6a4)"><path fill="#051f20" d="M 0.839844 53.714844 L 54.226562 0.328125 L 107.617188 53.714844 L 54.226562 107.105469 Z M 0.839844 53.714844 " fill-opacity="1" fill-rule="nonzero"/></g></g></g></g></g></g><g clip-path="url(#fcb82fdc3e)"><g clip-path="url(#3ad979204a)"><g transform="matrix(1, 0, 0, 1, 54, 53)"><g clip-path="url(#96f196ee09)"><g clip-path="url(#5cd1eac385)"><g clip-path="url(#80178ba413)"><path fill="#0b2b26" d="M 0.226562 54.105469 L 53.617188 0.714844 L 107.007812 54.105469 L 53.617188 107.496094 Z M 0.226562 54.105469 " fill-opacity="1" fill-rule="nonzero"/></g></g></g></g></g></g><g clip-path="url(#5aed21f3d7)"><g clip-path="url(#013f4065d4)"><g transform="matrix(1, 0, 0, 1, 161, 53)"><g clip-path="url(#7a54a310cc)"><g clip-path="url(#e3d1065d1a)"><g clip-path="url(#93d98ac299)"><path fill="#8eb69b" d="M 0.0078125 54.105469 L 53.398438 0.714844 L 106.789062 54.105469 L 53.398438 107.496094 Z M 0.0078125 54.105469 " fill-opacity="1" fill-rule="nonzero"/></g></g></g></g></g></g><g clip-path="url(#a5189dbf40)"><g clip-path="url(#adab6039ce)"><g transform="matrix(1, 0, 0, 1, 107, 107)"><g clip-path="url(#2a9cf2223b)"><g clip-path="url(#c7323bf623)"><g clip-path="url(#3dfc977707)"><path fill="#163832" d="M 0.609375 0.128906 L 107.390625 0.128906 L 107.390625 53.519531 L 0.609375 53.519531 Z M 0.609375 0.128906 " fill-opacity="1" fill-rule="nonzero"/></g></g></g></g></g></g><g clip-path="url(#4c08cd99c3)"><g clip-path="url(#b3be699ad1)"><g transform="matrix(1, 0, 0, 1, 107, 0.000000000000113687)"><g clip-path="url(#c4f819340a)"><g clip-path="url(#cc3a604ac1)"><g clip-path="url(#84a101a29c)"><path fill="#235347" d="M 0.617188 53.714844 L 54.007812 0.328125 L 107.398438 53.714844 L 54.007812 107.105469 Z M 0.617188 53.714844 " fill-opacity="1" fill-rule="nonzero"/></g></g></g></g></g></g><g clip-path="url(#e6353730a0)"><g clip-path="url(#20dca3429c)"><g transform="matrix(1, 0, 0, 1, 214, 0.000000000000113687)"><g clip-path="url(#f06ab8ba37)"><g clip-path="url(#9595f7b5b6)"><g clip-path="url(#f1d4a253e0)"><path fill="#daf1de" d="M 0.398438 53.714844 L 53.789062 0.328125 L 107.179688 53.714844 L 53.789062 107.105469 Z M 0.398438 53.714844 " fill-opacity="1" fill-rule="nonzero"/></g></g></g></g></g></g></g></g><g transform="matrix(1, 0, 0, 1, 353, 760)"><g clip-path="url(#646bca040c)"><g fill="#000000" fill-opacity="0.302"><g transform="translate(6.924814, 109.076805)"><g><path d="M 33.890625 0 L 10.328125 0 L 10.328125 -101.078125 L 54.109375 -101.078125 C 59.410156 -101.078125 64.273438 -100.207031 68.703125 -98.46875 C 73.140625 -96.738281 76.992188 -94.3125 80.265625 -91.1875 C 83.535156 -88.0625 86.0625 -84.359375 87.84375 -80.078125 C 89.625 -75.796875 90.515625 -71.125 90.515625 -66.0625 C 90.515625 -60.613281 89.625 -55.6875 87.84375 -51.28125 C 86.0625 -46.875 83.554688 -43.082031 80.328125 -39.90625 C 77.109375 -36.738281 73.296875 -34.300781 68.890625 -32.59375 C 64.484375 -30.882812 59.65625 -30.03125 54.40625 -30.03125 L 33.890625 -30.03125 Z M 33.890625 -80.109375 L 33.890625 -50.90625 L 53.140625 -50.90625 C 55.710938 -50.90625 58.039062 -51.570312 60.125 -52.90625 C 62.207031 -54.25 63.863281 -56.070312 65.09375 -58.375 C 66.332031 -60.675781 66.953125 -63.238281 66.953125 -66.0625 C 66.953125 -68.445312 66.332031 -70.703125 65.09375 -72.828125 C 63.863281 -74.960938 62.207031 -76.707031 60.125 -78.0625 C 58.039062 -79.425781 55.710938 -80.109375 53.140625 -80.109375 Z M 33.890625 -80.109375 "/></g></g></g><g fill="#000000" fill-opacity="0.302"><g transform="translate(92.739587, 109.076805)"><g><path d="M 33.890625 0 L 10.328125 0 L 10.328125 -101.078125 L 54.703125 -101.078125 C 60.046875 -101.078125 64.9375 -100.257812 69.375 -98.625 C 73.8125 -96.988281 77.664062 -94.65625 80.9375 -91.625 C 84.207031 -88.601562 86.734375 -85.007812 88.515625 -80.84375 C 90.296875 -76.6875 91.1875 -72.082031 91.1875 -67.03125 C 91.1875 -62.476562 90.394531 -58.269531 88.8125 -54.40625 C 87.226562 -50.539062 85.007812 -47.179688 82.15625 -44.328125 C 79.3125 -41.484375 75.929688 -39.21875 72.015625 -37.53125 L 93.5625 0 L 66.59375 0 L 48.90625 -33.8125 L 33.890625 -33.8125 Z M 33.890625 -80.109375 L 33.890625 -53.515625 L 53.734375 -53.515625 C 56.359375 -53.515625 58.707031 -54.09375 60.78125 -55.25 C 62.863281 -56.414062 64.523438 -58.015625 65.765625 -60.046875 C 67.003906 -62.078125 67.625 -64.40625 67.625 -67.03125 C 67.625 -69.414062 67.003906 -71.597656 65.765625 -73.578125 C 64.523438 -75.554688 62.851562 -77.140625 60.75 -78.328125 C 58.644531 -79.515625 56.304688 -80.109375 53.734375 -80.109375 Z M 33.890625 -80.109375 "/></g></g></g><g fill="#000000" fill-opacity="0.302"><g transform="translate(181.749295, 109.076805)"><g><path d="M 58.859375 2.296875 C 52.765625 2.296875 46.96875 1.40625 41.46875 -0.375 C 35.96875 -2.15625 30.925781 -4.65625 26.34375 -7.875 C 21.757812 -11.09375 17.796875 -14.921875 14.453125 -19.359375 C 11.109375 -23.796875 8.503906 -28.664062 6.640625 -33.96875 C 4.785156 -39.269531 3.859375 -44.84375 3.859375 -50.6875 C 3.859375 -56.582031 4.785156 -62.179688 6.640625 -67.484375 C 8.503906 -72.785156 11.109375 -77.628906 14.453125 -82.015625 C 17.796875 -86.398438 21.757812 -90.210938 26.34375 -93.453125 C 30.925781 -96.703125 35.96875 -99.203125 41.46875 -100.953125 C 46.96875 -102.710938 52.765625 -103.59375 58.859375 -103.59375 C 64.898438 -103.59375 70.65625 -102.710938 76.125 -100.953125 C 81.601562 -99.203125 86.632812 -96.703125 91.21875 -93.453125 C 95.800781 -90.210938 99.773438 -86.398438 103.140625 -82.015625 C 106.515625 -77.628906 109.128906 -72.785156 110.984375 -67.484375 C 112.847656 -62.179688 113.78125 -56.582031 113.78125 -50.6875 C 113.78125 -44.84375 112.847656 -39.269531 110.984375 -33.96875 C 109.128906 -28.664062 106.515625 -23.796875 103.140625 -19.359375 C 99.773438 -14.921875 95.800781 -11.09375 91.21875 -7.875 C 86.632812 -4.65625 81.601562 -2.15625 76.125 -0.375 C 70.65625 1.40625 64.898438 2.296875 58.859375 2.296875 Z M 58.859375 -19.25 C 63.222656 -19.25 67.3125 -20.015625 71.125 -21.546875 C 74.9375 -23.085938 78.28125 -25.269531 81.15625 -28.09375 C 84.03125 -30.914062 86.269531 -34.234375 87.875 -38.046875 C 89.488281 -41.859375 90.296875 -46.046875 90.296875 -50.609375 C 90.296875 -55.171875 89.488281 -59.367188 87.875 -63.203125 C 86.269531 -67.046875 84.03125 -70.378906 81.15625 -73.203125 C 78.28125 -76.023438 74.9375 -78.203125 71.125 -79.734375 C 67.3125 -81.273438 63.222656 -82.046875 58.859375 -82.046875 C 54.492188 -82.046875 50.40625 -81.273438 46.59375 -79.734375 C 42.78125 -78.203125 39.4375 -76.023438 36.5625 -73.203125 C 33.6875 -70.378906 31.441406 -67.046875 29.828125 -63.203125 C 28.222656 -59.367188 27.421875 -55.171875 27.421875 -50.609375 C 27.421875 -46.046875 28.238281 -41.859375 29.875 -38.046875 C 31.507812 -34.234375 33.765625 -30.914062 36.640625 -28.09375 C 39.515625 -25.269531 42.84375 -23.085938 46.625 -21.546875 C 50.414062 -20.015625 54.492188 -19.25 58.859375 -19.25 Z M 58.859375 -19.25 "/></g></g></g><g fill="#000000" fill-opacity="0.302"><g transform="translate(293.049384, 109.076805)"><g><path d="M 57.515625 2.296875 C 51.617188 2.296875 45.992188 1.40625 40.640625 -0.375 C 35.296875 -2.15625 30.394531 -4.65625 25.9375 -7.875 C 21.476562 -11.09375 17.585938 -14.921875 14.265625 -19.359375 C 10.953125 -23.796875 8.390625 -28.664062 6.578125 -33.96875 C 4.765625 -39.269531 3.859375 -44.84375 3.859375 -50.6875 C 3.859375 -56.582031 4.773438 -62.179688 6.609375 -67.484375 C 8.441406 -72.785156 11.003906 -77.628906 14.296875 -82.015625 C 17.597656 -86.398438 21.515625 -90.210938 26.046875 -93.453125 C 30.578125 -96.703125 35.539062 -99.203125 40.9375 -100.953125 C 46.34375 -102.710938 52.046875 -103.59375 58.046875 -103.59375 C 62.304688 -103.59375 66.628906 -103.0625 71.015625 -102 C 75.398438 -100.9375 79.625 -99.375 83.6875 -97.3125 C 87.75 -95.257812 91.488281 -92.734375 94.90625 -89.734375 C 98.320312 -86.742188 101.191406 -83.273438 103.515625 -79.328125 C 105.847656 -75.390625 107.4375 -71.046875 108.28125 -66.296875 L 84.34375 -66.296875 C 81.914062 -71.242188 78.382812 -75.101562 73.75 -77.875 C 69.125 -80.65625 63.664062 -82.046875 57.375 -82.046875 C 53.3125 -82.046875 49.46875 -81.328125 45.84375 -79.890625 C 42.226562 -78.453125 39.035156 -76.367188 36.265625 -73.640625 C 33.492188 -70.921875 31.328125 -67.628906 29.765625 -63.765625 C 28.203125 -59.898438 27.421875 -55.515625 27.421875 -50.609375 C 27.421875 -45.609375 28.203125 -41.160156 29.765625 -37.265625 C 31.328125 -33.378906 33.492188 -30.097656 36.265625 -27.421875 C 39.035156 -24.742188 42.226562 -22.710938 45.84375 -21.328125 C 49.46875 -19.941406 53.3125 -19.25 57.375 -19.25 C 64.164062 -19.25 69.863281 -20.769531 74.46875 -23.8125 C 79.070312 -26.863281 82.09375 -31.164062 83.53125 -36.71875 L 56.484375 -36.71875 L 56.484375 -55.515625 L 109.6875 -55.515625 C 109.789062 -46.648438 108.691406 -38.648438 106.390625 -31.515625 C 104.085938 -24.378906 100.691406 -18.296875 96.203125 -13.265625 C 91.722656 -8.234375 86.234375 -4.378906 79.734375 -1.703125 C 73.242188 0.960938 65.835938 2.296875 57.515625 2.296875 Z M 57.515625 2.296875 "/></g></g></g><g fill="#000000" fill-opacity="0.302"><g transform="translate(400.188603, 109.076805)"><g><path d="M 33.890625 0 L 10.328125 0 L 10.328125 -101.078125 L 54.703125 -101.078125 C 60.046875 -101.078125 64.9375 -100.257812 69.375 -98.625 C 73.8125 -96.988281 77.664062 -94.65625 80.9375 -91.625 C 84.207031 -88.601562 86.734375 -85.007812 88.515625 -80.84375 C 90.296875 -76.6875 91.1875 -72.082031 91.1875 -67.03125 C 91.1875 -62.476562 90.394531 -58.269531 88.8125 -54.40625 C 87.226562 -50.539062 85.007812 -47.179688 82.15625 -44.328125 C 79.3125 -41.484375 75.929688 -39.21875 72.015625 -37.53125 L 93.5625 0 L 66.59375 0 L 48.90625 -33.8125 L 33.890625 -33.8125 Z M 33.890625 -80.109375 L 33.890625 -53.515625 L 53.734375 -53.515625 C 56.359375 -53.515625 58.707031 -54.09375 60.78125 -55.25 C 62.863281 -56.414062 64.523438 -58.015625 65.765625 -60.046875 C 67.003906 -62.078125 67.625 -64.40625 67.625 -67.03125 C 67.625 -69.414062 67.003906 -71.597656 65.765625 -73.578125 C 64.523438 -75.554688 62.851562 -77.140625 60.75 -78.328125 C 58.644531 -79.515625 56.304688 -80.109375 53.734375 -80.109375 Z M 33.890625 -80.109375 "/></g></g></g><g fill="#000000" fill-opacity="0.302"><g transform="translate(489.198311, 109.076805)"><g><path d="M 105.390625 0 L 80.484375 0 L 73.953125 -16.421875 L 31.8125 -16.421875 L 25.265625 0 L 0.375 0 L 41.84375 -101.140625 L 63.90625 -101.140625 Z M 52.09375 -67.5625 L 39.53125 -35.96875 L 66.21875 -35.96875 L 53.65625 -67.5625 L 52.984375 -70.671875 L 52.765625 -70.671875 Z M 52.09375 -67.5625 "/></g></g></g><g fill="#000000" fill-opacity="0.302"><g transform="translate(588.535917, 109.076805)"><g><path d="M 33.890625 0 L 10.328125 0 L 10.328125 -101.078125 L 31.0625 -101.078125 L 62.5 -57.59375 L 62.5 -57.671875 L 94.390625 -101.078125 L 114.890625 -101.078125 L 114.890625 0 L 91.40625 0 L 91.40625 -63.546875 L 65.46875 -27.203125 L 59.53125 -27.203125 L 33.890625 -63.765625 Z M 33.890625 0 "/></g></g></g><g fill="#000000" fill-opacity="0.302"><g transform="translate(707.340415, 109.076805)"><g><path d="M 58.859375 2.296875 C 52.765625 2.296875 46.96875 1.40625 41.46875 -0.375 C 35.96875 -2.15625 30.925781 -4.65625 26.34375 -7.875 C 21.757812 -11.09375 17.796875 -14.921875 14.453125 -19.359375 C 11.109375 -23.796875 8.503906 -28.664062 6.640625 -33.96875 C 4.785156 -39.269531 3.859375 -44.84375 3.859375 -50.6875 C 3.859375 -56.582031 4.785156 -62.179688 6.640625 -67.484375 C 8.503906 -72.785156 11.109375 -77.628906 14.453125 -82.015625 C 17.796875 -86.398438 21.757812 -90.210938 26.34375 -93.453125 C 30.925781 -96.703125 35.96875 -99.203125 41.46875 -100.953125 C 46.96875 -102.710938 52.765625 -103.59375 58.859375 -103.59375 C 64.898438 -103.59375 70.65625 -102.710938 76.125 -100.953125 C 81.601562 -99.203125 86.632812 -96.703125 91.21875 -93.453125 C 95.800781 -90.210938 99.773438 -86.398438 103.140625 -82.015625 C 106.515625 -77.628906 109.128906 -72.785156 110.984375 -67.484375 C 112.847656 -62.179688 113.78125 -56.582031 113.78125 -50.6875 C 113.78125 -44.84375 112.847656 -39.269531 110.984375 -33.96875 C 109.128906 -28.664062 106.515625 -23.796875 103.140625 -19.359375 C 99.773438 -14.921875 95.800781 -11.09375 91.21875 -7.875 C 86.632812 -4.65625 81.601562 -2.15625 76.125 -0.375 C 70.65625 1.40625 64.898438 2.296875 58.859375 2.296875 Z M 58.859375 -19.25 C 63.222656 -19.25 67.3125 -20.015625 71.125 -21.546875 C 74.9375 -23.085938 78.28125 -25.269531 81.15625 -28.09375 C 84.03125 -30.914062 86.269531 -34.234375 87.875 -38.046875 C 89.488281 -41.859375 90.296875 -46.046875 90.296875 -50.609375 C 90.296875 -55.171875 89.488281 -59.367188 87.875 -63.203125 C 86.269531 -67.046875 84.03125 -70.378906 81.15625 -73.203125 C 78.28125 -76.023438 74.9375 -78.203125 71.125 -79.734375 C 67.3125 -81.273438 63.222656 -82.046875 58.859375 -82.046875 C 54.492188 -82.046875 50.40625 -81.273438 46.59375 -79.734375 C 42.78125 -78.203125 39.4375 -76.023438 36.5625 -73.203125 C 33.6875 -70.378906 31.441406 -67.046875 29.828125 -63.203125 C 28.222656 -59.367188 27.421875 -55.171875 27.421875 -50.609375 C 27.421875 -46.046875 28.238281 -41.859375 29.875 -38.046875 C 31.507812 -34.234375 33.765625 -30.914062 36.640625 -28.09375 C 39.515625 -25.269531 42.84375 -23.085938 46.625 -21.546875 C 50.414062 -20.015625 54.492188 -19.25 58.859375 -19.25 Z M 58.859375 -19.25 "/></g></g></g><g fill="#000000" fill-opacity="0.502"><g transform="translate(4.975664, 107.553953)"><g><path d="M 33.890625 0 L 10.328125 0 L 10.328125 -101.078125 L 54.109375 -101.078125 C 59.410156 -101.078125 64.273438 -100.207031 68.703125 -98.46875 C 73.140625 -96.738281 76.992188 -94.3125 80.265625 -91.1875 C 83.535156 -88.0625 86.0625 -84.359375 87.84375 -80.078125 C 89.625 -75.796875 90.515625 -71.125 90.515625 -66.0625 C 90.515625 -60.613281 89.625 -55.6875 87.84375 -51.28125 C 86.0625 -46.875 83.554688 -43.082031 80.328125 -39.90625 C 77.109375 -36.738281 73.296875 -34.300781 68.890625 -32.59375 C 64.484375 -30.882812 59.65625 -30.03125 54.40625 -30.03125 L 33.890625 -30.03125 Z M 33.890625 -80.109375 L 33.890625 -50.90625 L 53.140625 -50.90625 C 55.710938 -50.90625 58.039062 -51.570312 60.125 -52.90625 C 62.207031 -54.25 63.863281 -56.070312 65.09375 -58.375 C 66.332031 -60.675781 66.953125 -63.238281 66.953125 -66.0625 C 66.953125 -68.445312 66.332031 -70.703125 65.09375 -72.828125 C 63.863281 -74.960938 62.207031 -76.707031 60.125 -78.0625 C 58.039062 -79.425781 55.710938 -80.109375 53.140625 -80.109375 Z M 33.890625 -80.109375 "/></g></g></g><g fill="#000000" fill-opacity="0.502"><g transform="translate(90.790437, 107.553953)"><g><path d="M 33.890625 0 L 10.328125 0 L 10.328125 -101.078125 L 54.703125 -101.078125 C 60.046875 -101.078125 64.9375 -100.257812 69.375 -98.625 C 73.8125 -96.988281 77.664062 -94.65625 80.9375 -91.625 C 84.207031 -88.601562 86.734375 -85.007812 88.515625 -80.84375 C 90.296875 -76.6875 91.1875 -72.082031 91.1875 -67.03125 C 91.1875 -62.476562 90.394531 -58.269531 88.8125 -54.40625 C 87.226562 -50.539062 85.007812 -47.179688 82.15625 -44.328125 C 79.3125 -41.484375 75.929688 -39.21875 72.015625 -37.53125 L 93.5625 0 L 66.59375 0 L 48.90625 -33.8125 L 33.890625 -33.8125 Z M 33.890625 -80.109375 L 33.890625 -53.515625 L 53.734375 -53.515625 C 56.359375 -53.515625 58.707031 -54.09375 60.78125 -55.25 C 62.863281 -56.414062 64.523438 -58.015625 65.765625 -60.046875 C 67.003906 -62.078125 67.625 -64.40625 67.625 -67.03125 C 67.625 -69.414062 67.003906 -71.597656 65.765625 -73.578125 C 64.523438 -75.554688 62.851562 -77.140625 60.75 -78.328125 C 58.644531 -79.515625 56.304688 -80.109375 53.734375 -80.109375 Z M 33.890625 -80.109375 "/></g></g></g><g fill="#000000" fill-opacity="0.502"><g transform="translate(179.800145, 107.553953)"><g><path d="M 58.859375 2.296875 C 52.765625 2.296875 46.96875 1.40625 41.46875 -0.375 C 35.96875 -2.15625 30.925781 -4.65625 26.34375 -7.875 C 21.757812 -11.09375 17.796875 -14.921875 14.453125 -19.359375 C 11.109375 -23.796875 8.503906 -28.664062 6.640625 -33.96875 C 4.785156 -39.269531 3.859375 -44.84375 3.859375 -50.6875 C 3.859375 -56.582031 4.785156 -62.179688 6.640625 -67.484375 C 8.503906 -72.785156 11.109375 -77.628906 14.453125 -82.015625 C 17.796875 -86.398438 21.757812 -90.210938 26.34375 -93.453125 C 30.925781 -96.703125 35.96875 -99.203125 41.46875 -100.953125 C 46.96875 -102.710938 52.765625 -103.59375 58.859375 -103.59375 C 64.898438 -103.59375 70.65625 -102.710938 76.125 -100.953125 C 81.601562 -99.203125 86.632812 -96.703125 91.21875 -93.453125 C 95.800781 -90.210938 99.773438 -86.398438 103.140625 -82.015625 C 106.515625 -77.628906 109.128906 -72.785156 110.984375 -67.484375 C 112.847656 -62.179688 113.78125 -56.582031 113.78125 -50.6875 C 113.78125 -44.84375 112.847656 -39.269531 110.984375 -33.96875 C 109.128906 -28.664062 106.515625 -23.796875 103.140625 -19.359375 C 99.773438 -14.921875 95.800781 -11.09375 91.21875 -7.875 C 86.632812 -4.65625 81.601562 -2.15625 76.125 -0.375 C 70.65625 1.40625 64.898438 2.296875 58.859375 2.296875 Z M 58.859375 -19.25 C 63.222656 -19.25 67.3125 -20.015625 71.125 -21.546875 C 74.9375 -23.085938 78.28125 -25.269531 81.15625 -28.09375 C 84.03125 -30.914062 86.269531 -34.234375 87.875 -38.046875 C 89.488281 -41.859375 90.296875 -46.046875 90.296875 -50.609375 C 90.296875 -55.171875 89.488281 -59.367188 87.875 -63.203125 C 86.269531 -67.046875 84.03125 -70.378906 81.15625 -73.203125 C 78.28125 -76.023438 74.9375 -78.203125 71.125 -79.734375 C 67.3125 -81.273438 63.222656 -82.046875 58.859375 -82.046875 C 54.492188 -82.046875 50.40625 -81.273438 46.59375 -79.734375 C 42.78125 -78.203125 39.4375 -76.023438 36.5625 -73.203125 C 33.6875 -70.378906 31.441406 -67.046875 29.828125 -63.203125 C 28.222656 -59.367188 27.421875 -55.171875 27.421875 -50.609375 C 27.421875 -46.046875 28.238281 -41.859375 29.875 -38.046875 C 31.507812 -34.234375 33.765625 -30.914062 36.640625 -28.09375 C 39.515625 -25.269531 42.84375 -23.085938 46.625 -21.546875 C 50.414062 -20.015625 54.492188 -19.25 58.859375 -19.25 Z M 58.859375 -19.25 "/></g></g></g><g fill="#000000" fill-opacity="0.502"><g transform="translate(291.100234, 107.553953)"><g><path d="M 57.515625 2.296875 C 51.617188 2.296875 45.992188 1.40625 40.640625 -0.375 C 35.296875 -2.15625 30.394531 -4.65625 25.9375 -7.875 C 21.476562 -11.09375 17.585938 -14.921875 14.265625 -19.359375 C 10.953125 -23.796875 8.390625 -28.664062 6.578125 -33.96875 C 4.765625 -39.269531 3.859375 -44.84375 3.859375 -50.6875 C 3.859375 -56.582031 4.773438 -62.179688 6.609375 -67.484375 C 8.441406 -72.785156 11.003906 -77.628906 14.296875 -82.015625 C 17.597656 -86.398438 21.515625 -90.210938 26.046875 -93.453125 C 30.578125 -96.703125 35.539062 -99.203125 40.9375 -100.953125 C 46.34375 -102.710938 52.046875 -103.59375 58.046875 -103.59375 C 62.304688 -103.59375 66.628906 -103.0625 71.015625 -102 C 75.398438 -100.9375 79.625 -99.375 83.6875 -97.3125 C 87.75 -95.257812 91.488281 -92.734375 94.90625 -89.734375 C 98.320312 -86.742188 101.191406 -83.273438 103.515625 -79.328125 C 105.847656 -75.390625 107.4375 -71.046875 108.28125 -66.296875 L 84.34375 -66.296875 C 81.914062 -71.242188 78.382812 -75.101562 73.75 -77.875 C 69.125 -80.65625 63.664062 -82.046875 57.375 -82.046875 C 53.3125 -82.046875 49.46875 -81.328125 45.84375 -79.890625 C 42.226562 -78.453125 39.035156 -76.367188 36.265625 -73.640625 C 33.492188 -70.921875 31.328125 -67.628906 29.765625 -63.765625 C 28.203125 -59.898438 27.421875 -55.515625 27.421875 -50.609375 C 27.421875 -45.609375 28.203125 -41.160156 29.765625 -37.265625 C 31.328125 -33.378906 33.492188 -30.097656 36.265625 -27.421875 C 39.035156 -24.742188 42.226562 -22.710938 45.84375 -21.328125 C 49.46875 -19.941406 53.3125 -19.25 57.375 -19.25 C 64.164062 -19.25 69.863281 -20.769531 74.46875 -23.8125 C 79.070312 -26.863281 82.09375 -31.164062 83.53125 -36.71875 L 56.484375 -36.71875 L 56.484375 -55.515625 L 109.6875 -55.515625 C 109.789062 -46.648438 108.691406 -38.648438 106.390625 -31.515625 C 104.085938 -24.378906 100.691406 -18.296875 96.203125 -13.265625 C 91.722656 -8.234375 86.234375 -4.378906 79.734375 -1.703125 C 73.242188 0.960938 65.835938 2.296875 57.515625 2.296875 Z M 57.515625 2.296875 "/></g></g></g><g fill="#000000" fill-opacity="0.502"><g transform="translate(398.239453, 107.553953)"><g><path d="M 33.890625 0 L 10.328125 0 L 10.328125 -101.078125 L 54.703125 -101.078125 C 60.046875 -101.078125 64.9375 -100.257812 69.375 -98.625 C 73.8125 -96.988281 77.664062 -94.65625 80.9375 -91.625 C 84.207031 -88.601562 86.734375 -85.007812 88.515625 -80.84375 C 90.296875 -76.6875 91.1875 -72.082031 91.1875 -67.03125 C 91.1875 -62.476562 90.394531 -58.269531 88.8125 -54.40625 C 87.226562 -50.539062 85.007812 -47.179688 82.15625 -44.328125 C 79.3125 -41.484375 75.929688 -39.21875 72.015625 -37.53125 L 93.5625 0 L 66.59375 0 L 48.90625 -33.8125 L 33.890625 -33.8125 Z M 33.890625 -80.109375 L 33.890625 -53.515625 L 53.734375 -53.515625 C 56.359375 -53.515625 58.707031 -54.09375 60.78125 -55.25 C 62.863281 -56.414062 64.523438 -58.015625 65.765625 -60.046875 C 67.003906 -62.078125 67.625 -64.40625 67.625 -67.03125 C 67.625 -69.414062 67.003906 -71.597656 65.765625 -73.578125 C 64.523438 -75.554688 62.851562 -77.140625 60.75 -78.328125 C 58.644531 -79.515625 56.304688 -80.109375 53.734375 -80.109375 Z M 33.890625 -80.109375 "/></g></g></g><g fill="#000000" fill-opacity="0.502"><g transform="translate(487.249161, 107.553953)"><g><path d="M 105.390625 0 L 80.484375 0 L 73.953125 -16.421875 L 31.8125 -16.421875 L 25.265625 0 L 0.375 0 L 41.84375 -101.140625 L 63.90625 -101.140625 Z M 52.09375 -67.5625 L 39.53125 -35.96875 L 66.21875 -35.96875 L 53.65625 -67.5625 L 52.984375 -70.671875 L 52.765625 -70.671875 Z M 52.09375 -67.5625 "/></g></g></g><g fill="#000000" fill-opacity="0.502"><g transform="translate(586.586767, 107.553953)"><g><path d="M 33.890625 0 L 10.328125 0 L 10.328125 -101.078125 L 31.0625 -101.078125 L 62.5 -57.59375 L 62.5 -57.671875 L 94.390625 -101.078125 L 114.890625 -101.078125 L 114.890625 0 L 91.40625 0 L 91.40625 -63.546875 L 65.46875 -27.203125 L 59.53125 -27.203125 L 33.890625 -63.765625 Z M 33.890625 0 "/></g></g></g><g fill="#000000" fill-opacity="0.502"><g transform="translate(705.391265, 107.553953)"><g><path d="M 58.859375 2.296875 C 52.765625 2.296875 46.96875 1.40625 41.46875 -0.375 C 35.96875 -2.15625 30.925781 -4.65625 26.34375 -7.875 C 21.757812 -11.09375 17.796875 -14.921875 14.453125 -19.359375 C 11.109375 -23.796875 8.503906 -28.664062 6.640625 -33.96875 C 4.785156 -39.269531 3.859375 -44.84375 3.859375 -50.6875 C 3.859375 -56.582031 4.785156 -62.179688 6.640625 -67.484375 C 8.503906 -72.785156 11.109375 -77.628906 14.453125 -82.015625 C 17.796875 -86.398438 21.757812 -90.210938 26.34375 -93.453125 C 30.925781 -96.703125 35.96875 -99.203125 41.46875 -100.953125 C 46.96875 -102.710938 52.765625 -103.59375 58.859375 -103.59375 C 64.898438 -103.59375 70.65625 -102.710938 76.125 -100.953125 C 81.601562 -99.203125 86.632812 -96.703125 91.21875 -93.453125 C 95.800781 -90.210938 99.773438 -86.398438 103.140625 -82.015625 C 106.515625 -77.628906 109.128906 -72.785156 110.984375 -67.484375 C 112.847656 -62.179688 113.78125 -56.582031 113.78125 -50.6875 C 113.78125 -44.84375 112.847656 -39.269531 110.984375 -33.96875 C 109.128906 -28.664062 106.515625 -23.796875 103.140625 -19.359375 C 99.773438 -14.921875 95.800781 -11.09375 91.21875 -7.875 C 86.632812 -4.65625 81.601562 -2.15625 76.125 -0.375 C 70.65625 1.40625 64.898438 2.296875 58.859375 2.296875 Z M 58.859375 -19.25 C 63.222656 -19.25 67.3125 -20.015625 71.125 -21.546875 C 74.9375 -23.085938 78.28125 -25.269531 81.15625 -28.09375 C 84.03125 -30.914062 86.269531 -34.234375 87.875 -38.046875 C 89.488281 -41.859375 90.296875 -46.046875 90.296875 -50.609375 C 90.296875 -55.171875 89.488281 -59.367188 87.875 -63.203125 C 86.269531 -67.046875 84.03125 -70.378906 81.15625 -73.203125 C 78.28125 -76.023438 74.9375 -78.203125 71.125 -79.734375 C 67.3125 -81.273438 63.222656 -82.046875 58.859375 -82.046875 C 54.492188 -82.046875 50.40625 -81.273438 46.59375 -79.734375 C 42.78125 -78.203125 39.4375 -76.023438 36.5625 -73.203125 C 33.6875 -70.378906 31.441406 -67.046875 29.828125 -63.203125 C 28.222656 -59.367188 27.421875 -55.171875 27.421875 -50.609375 C 27.421875 -46.046875 28.238281 -41.859375 29.875 -38.046875 C 31.507812 -34.234375 33.765625 -30.914062 36.640625 -28.09375 C 39.515625 -25.269531 42.84375 -23.085938 46.625 -21.546875 C 50.414062 -20.015625 54.492188 -19.25 58.859375 -19.25 Z M 58.859375 -19.25 "/></g></g></g><g fill="#000000" fill-opacity="1"><g transform="translate(3.026484, 106.031102)"><g><path d="M 33.890625 0 L 10.328125 0 L 10.328125 -101.078125 L 54.109375 -101.078125 C 59.410156 -101.078125 64.273438 -100.207031 68.703125 -98.46875 C 73.140625 -96.738281 76.992188 -94.3125 80.265625 -91.1875 C 83.535156 -88.0625 86.0625 -84.359375 87.84375 -80.078125 C 89.625 -75.796875 90.515625 -71.125 90.515625 -66.0625 C 90.515625 -60.613281 89.625 -55.6875 87.84375 -51.28125 C 86.0625 -46.875 83.554688 -43.082031 80.328125 -39.90625 C 77.109375 -36.738281 73.296875 -34.300781 68.890625 -32.59375 C 64.484375 -30.882812 59.65625 -30.03125 54.40625 -30.03125 L 33.890625 -30.03125 Z M 33.890625 -80.109375 L 33.890625 -50.90625 L 53.140625 -50.90625 C 55.710938 -50.90625 58.039062 -51.570312 60.125 -52.90625 C 62.207031 -54.25 63.863281 -56.070312 65.09375 -58.375 C 66.332031 -60.675781 66.953125 -63.238281 66.953125 -66.0625 C 66.953125 -68.445312 66.332031 -70.703125 65.09375 -72.828125 C 63.863281 -74.960938 62.207031 -76.707031 60.125 -78.0625 C 58.039062 -79.425781 55.710938 -80.109375 53.140625 -80.109375 Z M 33.890625 -80.109375 "/></g></g></g><g fill="#000000" fill-opacity="1"><g transform="translate(88.841257, 106.031102)"><g><path d="M 33.890625 0 L 10.328125 0 L 10.328125 -101.078125 L 54.703125 -101.078125 C 60.046875 -101.078125 64.9375 -100.257812 69.375 -98.625 C 73.8125 -96.988281 77.664062 -94.65625 80.9375 -91.625 C 84.207031 -88.601562 86.734375 -85.007812 88.515625 -80.84375 C 90.296875 -76.6875 91.1875 -72.082031 91.1875 -67.03125 C 91.1875 -62.476562 90.394531 -58.269531 88.8125 -54.40625 C 87.226562 -50.539062 85.007812 -47.179688 82.15625 -44.328125 C 79.3125 -41.484375 75.929688 -39.21875 72.015625 -37.53125 L 93.5625 0 L 66.59375 0 L 48.90625 -33.8125 L 33.890625 -33.8125 Z M 33.890625 -80.109375 L 33.890625 -53.515625 L 53.734375 -53.515625 C 56.359375 -53.515625 58.707031 -54.09375 60.78125 -55.25 C 62.863281 -56.414062 64.523438 -58.015625 65.765625 -60.046875 C 67.003906 -62.078125 67.625 -64.40625 67.625 -67.03125 C 67.625 -69.414062 67.003906 -71.597656 65.765625 -73.578125 C 64.523438 -75.554688 62.851562 -77.140625 60.75 -78.328125 C 58.644531 -79.515625 56.304688 -80.109375 53.734375 -80.109375 Z M 33.890625 -80.109375 "/></g></g></g><g fill="#000000" fill-opacity="1"><g transform="translate(177.850965, 106.031102)"><g><path d="M 58.859375 2.296875 C 52.765625 2.296875 46.96875 1.40625 41.46875 -0.375 C 35.96875 -2.15625 30.925781 -4.65625 26.34375 -7.875 C 21.757812 -11.09375 17.796875 -14.921875 14.453125 -19.359375 C 11.109375 -23.796875 8.503906 -28.664062 6.640625 -33.96875 C 4.785156 -39.269531 3.859375 -44.84375 3.859375 -50.6875 C 3.859375 -56.582031 4.785156 -62.179688 6.640625 -67.484375 C 8.503906 -72.785156 11.109375 -77.628906 14.453125 -82.015625 C 17.796875 -86.398438 21.757812 -90.210938 26.34375 -93.453125 C 30.925781 -96.703125 35.96875 -99.203125 41.46875 -100.953125 C 46.96875 -102.710938 52.765625 -103.59375 58.859375 -103.59375 C 64.898438 -103.59375 70.65625 -102.710938 76.125 -100.953125 C 81.601562 -99.203125 86.632812 -96.703125 91.21875 -93.453125 C 95.800781 -90.210938 99.773438 -86.398438 103.140625 -82.015625 C 106.515625 -77.628906 109.128906 -72.785156 110.984375 -67.484375 C 112.847656 -62.179688 113.78125 -56.582031 113.78125 -50.6875 C 113.78125 -44.84375 112.847656 -39.269531 110.984375 -33.96875 C 109.128906 -28.664062 106.515625 -23.796875 103.140625 -19.359375 C 99.773438 -14.921875 95.800781 -11.09375 91.21875 -7.875 C 86.632812 -4.65625 81.601562 -2.15625 76.125 -0.375 C 70.65625 1.40625 64.898438 2.296875 58.859375 2.296875 Z M 58.859375 -19.25 C 63.222656 -19.25 67.3125 -20.015625 71.125 -21.546875 C 74.9375 -23.085938 78.28125 -25.269531 81.15625 -28.09375 C 84.03125 -30.914062 86.269531 -34.234375 87.875 -38.046875 C 89.488281 -41.859375 90.296875 -46.046875 90.296875 -50.609375 C 90.296875 -55.171875 89.488281 -59.367188 87.875 -63.203125 C 86.269531 -67.046875 84.03125 -70.378906 81.15625 -73.203125 C 78.28125 -76.023438 74.9375 -78.203125 71.125 -79.734375 C 67.3125 -81.273438 63.222656 -82.046875 58.859375 -82.046875 C 54.492188 -82.046875 50.40625 -81.273438 46.59375 -79.734375 C 42.78125 -78.203125 39.4375 -76.023438 36.5625 -73.203125 C 33.6875 -70.378906 31.441406 -67.046875 29.828125 -63.203125 C 28.222656 -59.367188 27.421875 -55.171875 27.421875 -50.609375 C 27.421875 -46.046875 28.238281 -41.859375 29.875 -38.046875 C 31.507812 -34.234375 33.765625 -30.914062 36.640625 -28.09375 C 39.515625 -25.269531 42.84375 -23.085938 46.625 -21.546875 C 50.414062 -20.015625 54.492188 -19.25 58.859375 -19.25 Z M 58.859375 -19.25 "/></g></g></g><g fill="#000000" fill-opacity="1"><g transform="translate(289.151054, 106.031102)"><g><path d="M 57.515625 2.296875 C 51.617188 2.296875 45.992188 1.40625 40.640625 -0.375 C 35.296875 -2.15625 30.394531 -4.65625 25.9375 -7.875 C 21.476562 -11.09375 17.585938 -14.921875 14.265625 -19.359375 C 10.953125 -23.796875 8.390625 -28.664062 6.578125 -33.96875 C 4.765625 -39.269531 3.859375 -44.84375 3.859375 -50.6875 C 3.859375 -56.582031 4.773438 -62.179688 6.609375 -67.484375 C 8.441406 -72.785156 11.003906 -77.628906 14.296875 -82.015625 C 17.597656 -86.398438 21.515625 -90.210938 26.046875 -93.453125 C 30.578125 -96.703125 35.539062 -99.203125 40.9375 -100.953125 C 46.34375 -102.710938 52.046875 -103.59375 58.046875 -103.59375 C 62.304688 -103.59375 66.628906 -103.0625 71.015625 -102 C 75.398438 -100.9375 79.625 -99.375 83.6875 -97.3125 C 87.75 -95.257812 91.488281 -92.734375 94.90625 -89.734375 C 98.320312 -86.742188 101.191406 -83.273438 103.515625 -79.328125 C 105.847656 -75.390625 107.4375 -71.046875 108.28125 -66.296875 L 84.34375 -66.296875 C 81.914062 -71.242188 78.382812 -75.101562 73.75 -77.875 C 69.125 -80.65625 63.664062 -82.046875 57.375 -82.046875 C 53.3125 -82.046875 49.46875 -81.328125 45.84375 -79.890625 C 42.226562 -78.453125 39.035156 -76.367188 36.265625 -73.640625 C 33.492188 -70.921875 31.328125 -67.628906 29.765625 -63.765625 C 28.203125 -59.898438 27.421875 -55.515625 27.421875 -50.609375 C 27.421875 -45.609375 28.203125 -41.160156 29.765625 -37.265625 C 31.328125 -33.378906 33.492188 -30.097656 36.265625 -27.421875 C 39.035156 -24.742188 42.226562 -22.710938 45.84375 -21.328125 C 49.46875 -19.941406 53.3125 -19.25 57.375 -19.25 C 64.164062 -19.25 69.863281 -20.769531 74.46875 -23.8125 C 79.070312 -26.863281 82.09375 -31.164062 83.53125 -36.71875 L 56.484375 -36.71875 L 56.484375 -55.515625 L 109.6875 -55.515625 C 109.789062 -46.648438 108.691406 -38.648438 106.390625 -31.515625 C 104.085938 -24.378906 100.691406 -18.296875 96.203125 -13.265625 C 91.722656 -8.234375 86.234375 -4.378906 79.734375 -1.703125 C 73.242188 0.960938 65.835938 2.296875 57.515625 2.296875 Z M 57.515625 2.296875 "/></g></g></g><g fill="#000000" fill-opacity="1"><g transform="translate(396.290274, 106.031102)"><g><path d="M 33.890625 0 L 10.328125 0 L 10.328125 -101.078125 L 54.703125 -101.078125 C 60.046875 -101.078125 64.9375 -100.257812 69.375 -98.625 C 73.8125 -96.988281 77.664062 -94.65625 80.9375 -91.625 C 84.207031 -88.601562 86.734375 -85.007812 88.515625 -80.84375 C 90.296875 -76.6875 91.1875 -72.082031 91.1875 -67.03125 C 91.1875 -62.476562 90.394531 -58.269531 88.8125 -54.40625 C 87.226562 -50.539062 85.007812 -47.179688 82.15625 -44.328125 C 79.3125 -41.484375 75.929688 -39.21875 72.015625 -37.53125 L 93.5625 0 L 66.59375 0 L 48.90625 -33.8125 L 33.890625 -33.8125 Z M 33.890625 -80.109375 L 33.890625 -53.515625 L 53.734375 -53.515625 C 56.359375 -53.515625 58.707031 -54.09375 60.78125 -55.25 C 62.863281 -56.414062 64.523438 -58.015625 65.765625 -60.046875 C 67.003906 -62.078125 67.625 -64.40625 67.625 -67.03125 C 67.625 -69.414062 67.003906 -71.597656 65.765625 -73.578125 C 64.523438 -75.554688 62.851562 -77.140625 60.75 -78.328125 C 58.644531 -79.515625 56.304688 -80.109375 53.734375 -80.109375 Z M 33.890625 -80.109375 "/></g></g></g><g fill="#000000" fill-opacity="1"><g transform="translate(485.299982, 106.031102)"><g><path d="M 105.390625 0 L 80.484375 0 L 73.953125 -16.421875 L 31.8125 -16.421875 L 25.265625 0 L 0.375 0 L 41.84375 -101.140625 L 63.90625 -101.140625 Z M 52.09375 -67.5625 L 39.53125 -35.96875 L 66.21875 -35.96875 L 53.65625 -67.5625 L 52.984375 -70.671875 L 52.765625 -70.671875 Z M 52.09375 -67.5625 "/></g></g></g><g fill="#000000" fill-opacity="1"><g transform="translate(584.637588, 106.031102)"><g><path d="M 33.890625 0 L 10.328125 0 L 10.328125 -101.078125 L 31.0625 -101.078125 L 62.5 -57.59375 L 62.5 -57.671875 L 94.390625 -101.078125 L 114.890625 -101.078125 L 114.890625 0 L 91.40625 0 L 91.40625 -63.546875 L 65.46875 -27.203125 L 59.53125 -27.203125 L 33.890625 -63.765625 Z M 33.890625 0 "/></g></g></g><g fill="#000000" fill-opacity="1"><g transform="translate(703.442085, 106.031102)"><g><path d="M 58.859375 2.296875 C 52.765625 2.296875 46.96875 1.40625 41.46875 -0.375 C 35.96875 -2.15625 30.925781 -4.65625 26.34375 -7.875 C 21.757812 -11.09375 17.796875 -14.921875 14.453125 -19.359375 C 11.109375 -23.796875 8.503906 -28.664062 6.640625 -33.96875 C 4.785156 -39.269531 3.859375 -44.84375 3.859375 -50.6875 C 3.859375 -56.582031 4.785156 -62.179688 6.640625 -67.484375 C 8.503906 -72.785156 11.109375 -77.628906 14.453125 -82.015625 C 17.796875 -86.398438 21.757812 -90.210938 26.34375 -93.453125 C 30.925781 -96.703125 35.96875 -99.203125 41.46875 -100.953125 C 46.96875 -102.710938 52.765625 -103.59375 58.859375 -103.59375 C 64.898438 -103.59375 70.65625 -102.710938 76.125 -100.953125 C 81.601562 -99.203125 86.632812 -96.703125 91.21875 -93.453125 C 95.800781 -90.210938 99.773438 -86.398438 103.140625 -82.015625 C 106.515625 -77.628906 109.128906 -72.785156 110.984375 -67.484375 C 112.847656 -62.179688 113.78125 -56.582031 113.78125 -50.6875 C 113.78125 -44.84375 112.847656 -39.269531 110.984375 -33.96875 C 109.128906 -28.664062 106.515625 -23.796875 103.140625 -19.359375 C 99.773438 -14.921875 95.800781 -11.09375 91.21875 -7.875 C 86.632812 -4.65625 81.601562 -2.15625 76.125 -0.375 C 70.65625 1.40625 64.898438 2.296875 58.859375 2.296875 Z M 58.859375 -19.25 C 63.222656 -19.25 67.3125 -20.015625 71.125 -21.546875 C 74.9375 -23.085938 78.28125 -25.269531 81.15625 -28.09375 C 84.03125 -30.914062 86.269531 -34.234375 87.875 -38.046875 C 89.488281 -41.859375 90.296875 -46.046875 90.296875 -50.609375 C 90.296875 -55.171875 89.488281 -59.367188 87.875 -63.203125 C 86.269531 -67.046875 84.03125 -70.378906 81.15625 -73.203125 C 78.28125 -76.023438 74.9375 -78.203125 71.125 -79.734375 C 67.3125 -81.273438 63.222656 -82.046875 58.859375 -82.046875 C 54.492188 -82.046875 50.40625 -81.273438 46.59375 -79.734375 C 42.78125 -78.203125 39.4375 -76.023438 36.5625 -73.203125 C 33.6875 -70.378906 31.441406 -67.046875 29.828125 -63.203125 C 28.222656 -59.367188 27.421875 -55.171875 27.421875 -50.609375 C 27.421875 -46.046875 28.238281 -41.859375 29.875 -38.046875 C 31.507812 -34.234375 33.765625 -30.914062 36.640625 -28.09375 C 39.515625 -25.269531 42.84375 -23.085938 46.625 -21.546875 C 50.414062 -20.015625 54.492188 -19.25 58.859375 -19.25 Z M 58.859375 -19.25 "/></g></g></g></g></g></svg>